<svg width="20" height="20" viewBox="0 0 20 20" fill="none" xmlns="http://www.w3.org/2000/svg">
<mask id="mask0_9701_476" style="mask-type:alpha" maskUnits="userSpaceOnUse" x="0" y="0" width="20" height="20">
<rect width="20" height="20" fill="#D9D9D9"/>
</mask>
<g mask="url(#mask0_9701_476)">
<path d="M4.6875 16.6667C4.29861 16.6667 3.97584 16.5383 3.71917 16.2817C3.46195 16.0244 3.33334 15.7014 3.33334 15.3125V4.68749C3.33334 4.29861 3.46195 3.97583 3.71917 3.71916C3.97584 3.46194 4.29861 3.33333 4.6875 3.33333H15.3125C15.7014 3.33333 16.0244 3.46194 16.2817 3.71916C16.5383 3.97583 16.6667 4.29861 16.6667 4.68749V15.3125C16.6667 15.7014 16.5383 16.0244 16.2817 16.2817C16.0244 16.5383 15.7014 16.6667 15.3125 16.6667H4.6875ZM4.6875 15.8333H15.3125C15.4514 15.8333 15.5728 15.7811 15.6767 15.6767C15.7811 15.5728 15.8333 15.4514 15.8333 15.3125V4.68749C15.8333 4.54861 15.7811 4.42722 15.6767 4.32333C15.5728 4.21888 15.4514 4.16666 15.3125 4.16666H4.6875C4.54861 4.16666 4.42722 4.21888 4.32334 4.32333C4.21889 4.42722 4.16667 4.54861 4.16667 4.68749V15.3125C4.16667 15.4514 4.21889 15.5728 4.32334 15.6767C4.42722 15.7811 4.54861 15.8333 4.6875 15.8333Z" fill="#DBDEE6"/>
</g>
</svg>
