<svg width="20" height="20" viewBox="0 0 20 20" fill="none" xmlns="http://www.w3.org/2000/svg">
<mask id="mask0_9701_1046" style="mask-type:alpha" maskUnits="userSpaceOnUse" x="0" y="0" width="20" height="20">
<rect width="20" height="20" fill="#D9D9D9"/>
</mask>
<g mask="url(#mask0_9701_1046)">
<path d="M9.09998 12.2462L6.77688 9.92308C6.63842 9.78461 6.46439 9.71378 6.25478 9.71058C6.04518 9.70736 5.86794 9.77819 5.72308 9.92308C5.57819 10.0679 5.50575 10.2436 5.50575 10.45C5.50575 10.6564 5.57819 10.832 5.72308 10.9769L8.4673 13.7211C8.64807 13.9019 8.85896 13.9923 9.09998 13.9923C9.34099 13.9923 9.55188 13.9019 9.73265 13.7211L15.2961 8.15765C15.4346 8.0192 15.5054 7.84517 15.5086 7.63555C15.5118 7.42593 15.441 7.24869 15.2961 7.10383C15.1513 6.95896 14.9756 6.88653 14.7692 6.88653C14.5628 6.88653 14.3872 6.95896 14.2423 7.10383L9.09998 12.2462ZM3.8077 19C3.30257 19 2.875 18.825 2.525 18.475C2.175 18.125 2 17.6974 2 17.1923V3.8077C2 3.30257 2.175 2.875 2.525 2.525C2.875 2.175 3.30257 2 3.8077 2H17.1923C17.6974 2 18.125 2.175 18.475 2.525C18.825 2.875 19 3.30257 19 3.8077V17.1923C19 17.6974 18.825 18.125 18.475 18.475C18.125 18.825 17.6974 19 17.1923 19H3.8077Z" fill="#1C1B1F"/>
</g>
</svg>
