<svg width="28" height="28" viewBox="0 0 28 28" fill="none" xmlns="http://www.w3.org/2000/svg">
<mask id="mask0_1_1949" style="mask-type:alpha" maskUnits="userSpaceOnUse" x="3" y="4" width="21" height="21">
<rect width="20.2209" height="20.2209" transform="matrix(-1 0 0 1 23.9285 4.07156)" fill="#D9D9D9"/>
</mask>
<g mask="url(#mask0_1_1949)">
<path d="M12.4279 18.3525L16.135 14.6664C16.2052 14.5822 16.2544 14.5013 16.2825 14.4238C16.3105 14.3468 16.3246 14.2662 16.3246 14.182C16.3246 14.0977 16.3105 14.0168 16.2825 13.9393C16.2544 13.8624 16.2052 13.7818 16.135 13.6975L12.4279 10.0114C12.3436 9.91313 12.2453 9.86398 12.133 9.86398C12.0206 9.86398 11.9223 9.91313 11.8381 10.0114C11.7398 10.0957 11.6906 10.194 11.6906 10.3063C11.6906 10.4187 11.7398 10.5169 11.8381 10.6012L15.4189 14.182L11.8381 17.7628C11.7398 17.847 11.6906 17.9453 11.6906 18.0576C11.6906 18.17 11.7398 18.2683 11.8381 18.3525C11.9223 18.4508 12.0206 18.5 12.133 18.5C12.2453 18.5 12.3436 18.4508 12.4279 18.3525Z" fill="#131316"/>
</g>
</svg>
